<svg xmlns="http://www.w3.org/2000/svg" xmlns:xlink="http://www.w3.org/1999/xlink" width="155.916" height="155.916" viewBox="0 0 155.916 155.916"><defs><linearGradient id="a" y1="0.5" x2="1" y2="0.5" gradientUnits="objectBoundingBox"><stop offset="0" stop-color="#5d79e3"/><stop offset="1" stop-color="#c854c3"/></linearGradient></defs><g transform="translate(-1006 -285)"><g transform="translate(1006 285)"><path d="M0,0H155.916V155.916H0Z" fill="none"/><path d="M93.951,35.234V12.5a6.516,6.516,0,0,0-6.5-6.5H9.5A6.516,6.516,0,0,0,3,12.5V77.462a6.516,6.516,0,0,0,6.5,6.5H87.455a6.516,6.516,0,0,0,6.5-6.5V54.724L119.937,80.71V9.248ZM74.462,51.476H54.972v19.49H41.979V51.476H22.49V38.483h19.49V18.993H54.972v19.49h19.49Z" transform="translate(16.49 32.979)" fill="url(#a)"/></g><g transform="translate(1064 337)" fill="#fff" stroke="#fff" stroke-width="1"><rect width="14" height="52" stroke="none"/><rect x="0.5" y="0.5" width="13" height="51" fill="none"/></g><g transform="translate(1045 370) rotate(-90)" fill="#fff" stroke="#fff" stroke-width="1"><rect width="14" height="52" stroke="none"/><rect x="0.5" y="0.5" width="13" height="51" fill="none"/></g></g></svg>